<svg width="1200" height="900" viewBox="0 0 1200 900" fill="none" xmlns="http://www.w3.org/2000/svg">
  <defs>
    <linearGradient id="bg" x1="0" y1="0" x2="1200" y2="900" gradientUnits="userSpaceOnUse">
      <stop stop-color="#163A5C" />
      <stop offset="1" stop-color="#0B1F33" />
    </linearGradient>
    <linearGradient id="card" x1="180" y1="130" x2="950" y2="750" gradientUnits="userSpaceOnUse">
      <stop stop-color="#FFFFFF" stop-opacity="0.95" />
      <stop offset="1" stop-color="#F5F8FC" stop-opacity="0.95" />
    </linearGradient>
  </defs>
  <rect width="1200" height="900" fill="url(#bg)" />
  <circle cx="1020" cy="145" r="160" fill="#F2B233" fill-opacity="0.25" />
  <circle cx="140" cy="770" r="210" fill="#F2B233" fill-opacity="0.14" />
  <rect x="165" y="100" width="870" height="700" rx="40" fill="url(#card)" />
  <rect x="220" y="170" width="760" height="220" rx="24" fill="#EAF0F8" />
  <rect x="244" y="195" width="258" height="170" rx="20" fill="#D8E4F2" />
  <rect x="522" y="195" width="210" height="170" rx="20" fill="#D8E4F2" />
  <rect x="752" y="195" width="204" height="170" rx="20" fill="#D8E4F2" />
  <rect x="220" y="430" width="760" height="305" rx="24" fill="#F7FAFE" />
  <rect x="260" y="470" width="256" height="225" rx="20" fill="#FFFFFF" stroke="#DBE5EF" stroke-width="2" />
  <rect x="540" y="470" width="180" height="225" rx="20" fill="#FFFFFF" stroke="#DBE5EF" stroke-width="2" />
  <rect x="744" y="470" width="196" height="225" rx="20" fill="#FFFFFF" stroke="#DBE5EF" stroke-width="2" />
  <rect x="295" y="510" width="185" height="20" rx="10" fill="#102A43" />
  <rect x="295" y="546" width="210" height="14" rx="7" fill="#6E8094" />
  <rect x="295" y="570" width="170" height="14" rx="7" fill="#6E8094" />
  <rect x="566" y="510" width="130" height="20" rx="10" fill="#102A43" />
  <rect x="566" y="546" width="126" height="14" rx="7" fill="#6E8094" />
  <rect x="566" y="570" width="110" height="14" rx="7" fill="#6E8094" />
  <rect x="770" y="510" width="146" height="20" rx="10" fill="#102A43" />
  <rect x="770" y="546" width="146" height="14" rx="7" fill="#6E8094" />
  <rect x="770" y="570" width="130" height="14" rx="7" fill="#6E8094" />
  <circle cx="357" cy="316" r="46" fill="#102A43" />
  <rect x="332" y="359" width="50" height="13" rx="6.5" fill="#102A43" />
  <circle cx="623" cy="316" r="38" fill="#102A43" />
  <rect x="599" y="354" width="48" height="13" rx="6.5" fill="#102A43" />
  <circle cx="852" cy="316" r="43" fill="#102A43" />
  <rect x="828" y="359" width="48" height="13" rx="6.5" fill="#102A43" />
  <path d="M616 242L645 242L645 213L678 213L678 184L645 184L645 156L616 156L616 184L584 184L584 213L616 213L616 242Z" fill="#F2B233" />
</svg>
